<svg xmlns="http://www.w3.org/2000/svg" width="31.657" height="20.546" viewBox="0 0 31.657 20.546">
  <g id="Groupe_10483" data-name="Groupe 10483" transform="translate(-185.167 -66.667)">
    <g id="Groupe_1" data-name="Groupe 1" transform="translate(185.167 66.667)">
      <path id="Tracé_1" data-name="Tracé 1" d="M141.98,235.355h3.88l-7.674-10.635h-6.768l5.984,8.293A5.646,5.646,0,0,0,141.98,235.355Z" transform="translate(-131.417 -214.809)" fill="#04bf68" opacity="0.8"/>
      <path id="Tracé_2" data-name="Tracé 2" d="M142.543,201.037h3.9l-10.636,14.535-3.384-4.625,5.56-7.6A5.646,5.646,0,0,1,142.543,201.037Z" transform="translate(-132.427 -201.037)" fill="#04bf68"/>
    </g>
    <g id="Groupe_2" data-name="Groupe 2" transform="translate(202.381 66.667)">
      <path id="Tracé_3" data-name="Tracé 3" d="M87.31,235.355H83.43L91.1,224.72h6.768l-5.985,8.293A5.645,5.645,0,0,1,87.31,235.355Z" transform="translate(-83.43 -214.809)" fill="#04bf68" opacity="0.8"/>
      <path id="Tracé_4" data-name="Tracé 4" d="M87.333,201.037h-3.9l10.635,14.535,3.384-4.625-5.56-7.6A5.646,5.646,0,0,0,87.333,201.037Z" transform="translate(-83.007 -201.037)" fill="#04bf68"/>
    </g>
  </g>
</svg>
