<svg xmlns="http://www.w3.org/2000/svg" width="62" height="62" viewBox="0 0 62 62">
  <g id="Groupe_10486" data-name="Groupe 10486" transform="translate(-723 -954)">
    <circle id="Ellipse_2" data-name="Ellipse 2" cx="31" cy="31" r="31" transform="translate(723 954)" fill="rgba(3,140,115,0.15)"/>
    <g id="student" transform="translate(734.809 970.578)">
      <path id="Tracé_7" data-name="Tracé 7" d="M38.381,27.586a1.2,1.2,0,0,1-2.4,0V11.807L22.751,18.441a7.878,7.878,0,0,1-3.561.75,7.878,7.878,0,0,1-3.561-.75L1.462,11.357Q0,10.607,0,9.577T1.462,7.834L15.63.75A7.878,7.878,0,0,1,19.19,0a7.878,7.878,0,0,1,3.561.75L36.919,7.834a2.276,2.276,0,0,1,1.424,1.574.217.217,0,0,1,.037.15ZM23.951,20.84,31.185,17.2v5.285q0,1.612-3.5,2.755a27.581,27.581,0,0,1-8.49,1.143,27.581,27.581,0,0,1-8.49-1.143Q7.2,24.1,7.2,22.489V17.2L14.43,20.84a11.253,11.253,0,0,0,4.76.75A11.253,11.253,0,0,0,23.951,20.84Z" transform="translate(0 0)" fill="#038c73"/>
    </g>
  </g>
</svg>
