<svg xmlns="http://www.w3.org/2000/svg" width="62" height="62" viewBox="0 0 62 62">
  <g id="Groupe_10487" data-name="Groupe 10487" transform="translate(-1275 -954)">
    <g id="Groupe_9" data-name="Groupe 9" transform="translate(1275 954)">
      <circle id="Ellipse_3" data-name="Ellipse 3" cx="31" cy="31" r="31" fill="rgba(3,140,115,0.15)"/>
      <g id="certificatealt" transform="translate(18.452 14.498)">
        <path id="Tracé_6" data-name="Tracé 6" d="M21.962,12.531,25.1,15.893,20.69,17.263l1.044,4.471-4.144-.946,3.329,10.606A1.946,1.946,0,0,1,20,33.09l-1.7-1.7-2.023,2.023a2.042,2.042,0,0,1-1.175-.734,2.009,2.009,0,0,1-.457-1.289l-2.121-6.723-2.089,6.723a2.009,2.009,0,0,1-.457,1.289,2.042,2.042,0,0,1-1.175.734L6.788,31.394l-1.7,1.7a1.946,1.946,0,0,1-.914-1.7L7.506,20.788l-4.144.946,1.044-4.471L0,15.893l3.133-3.361L0,9.17,4.406,7.832,3.361,3.361,7.832,4.406,9.17,0l3.361,3.133L15.893,0l1.371,4.406,4.471-1.044L20.69,7.832,25.1,9.17ZM12.548,6.266A6.05,6.05,0,0,0,8.109,8.109a6.05,6.05,0,0,0-1.844,4.438,6.05,6.05,0,0,0,1.844,4.438,6.05,6.05,0,0,0,4.438,1.844,6.05,6.05,0,0,0,4.438-1.844,6.05,6.05,0,0,0,1.844-4.438,6.05,6.05,0,0,0-1.844-4.438A6.05,6.05,0,0,0,12.548,6.266Z" fill="#038c73"/>
      </g>
    </g>
  </g>
</svg>
